<?xml version="1.0" encoding="iso-8859-1"?>
<!-- Generator: Adobe Illustrator 19.0.0, SVG Export Plug-In . SVG Version: 6.00 Build 0)  -->
<svg version="1.1" id="Capa_1" xmlns="http://www.w3.org/2000/svg" xmlns:xlink="http://www.w3.org/1999/xlink" x="0px" y="0px"
	 viewBox="0 0 511.999 511.999" style="enable-background:new 0 0 511.999 511.999;" xml:space="preserve">
<path style="fill:#CCDFED;" d="M269.503,12.363c-8.142-6.694-18.87-6.694-27.012,0L7.293,205.725v274.073
	c0,13.733,11.254,24.866,25.136,24.866h447.143c13.882,0,25.136-11.133,25.136-24.866V205.725L269.503,12.363z"/>
<path style="fill:#B2CAD8;" d="M7.293,205.726v274.072c0,13.734,11.254,24.867,25.136,24.867h447.143
	c13.882,0,25.136-11.133,25.136-24.867V205.726H7.293z"/>
<path style="fill:#FF6D3A;" d="M438.532,62.842H73.468c-10.173,0-18.42,8.247-18.42,18.42v404.983c0,10.173,8.247,18.42,18.42,18.42
	h365.064c10.173,0,18.42-8.247,18.42-18.42V81.262C456.952,71.089,448.705,62.842,438.532,62.842z"/>
<path style="fill:#ED5729;" d="M438.532,62.842h-45.218c10.173,0,18.419,8.247,18.419,18.419v404.983
	c0,10.173-8.247,18.42-18.419,18.42h45.218c10.173,0,18.419-8.247,18.419-18.42V81.262
	C456.952,71.089,448.705,62.842,438.532,62.842z"/>
<path style="fill:#E1EFFB;" d="M275.989,380.489c-11.707,8.328-28.27,8.328-39.977,0L7.293,205.726v274.072
	c0,13.733,11.254,24.866,25.136,24.866h447.143c13.882,0,25.136-11.133,25.136-24.866V205.726L275.989,380.489z"/>
<g>
	<path style="fill:#CCDFED;" d="M459.003,240.648v219.377c0,13.733-11.254,24.866-25.136,24.866H7.823
		c2.376,11.29,12.489,19.773,24.606,19.773h447.143c13.882,0,25.136-11.133,25.136-24.867V205.726L459.003,240.648z"/>
	<path style="fill:#CCDFED;" d="M481.466,504.587c0.33-0.024,0.659-0.053,0.985-0.09c0.168-0.019,0.336-0.041,0.503-0.063
		c0.314-0.042,0.625-0.089,0.935-0.142c0.158-0.027,0.316-0.054,0.473-0.084c0.347-0.066,0.69-0.141,1.032-0.221
		c0.111-0.026,0.222-0.049,0.332-0.076c0.462-0.115,0.919-0.241,1.37-0.381c0.002-0.001,0.004-0.001,0.006-0.002
		c0.443-0.138,0.88-0.29,1.313-0.451c0.098-0.036,0.194-0.076,0.292-0.114c0.341-0.132,0.679-0.27,1.012-0.416
		c0.106-0.046,0.211-0.094,0.317-0.142c0.339-0.154,0.673-0.315,1.004-0.483c0.08-0.041,0.161-0.08,0.24-0.122
		c1.263-0.66,2.463-1.421,3.587-2.276c0.025-0.019,0.048-0.038,0.073-0.057c0.351-0.269,0.694-0.547,1.03-0.833
		c0.033-0.028,0.066-0.057,0.099-0.085c0.349-0.301,0.691-0.61,1.022-0.929c0.002-0.002,0.004-0.004,0.005-0.005
		c1.044-1.006,2-2.1,2.855-3.271l0,0L320.286,346.641l-44.298,33.848c-11.707,8.328-28.27,8.328-39.977,0l-44.3-33.85
		L12.049,494.344c0.856,1.172,1.812,2.266,2.857,3.272c0.001,0.001,0.002,0.002,0.002,0.002c0.334,0.321,0.677,0.632,1.028,0.934
		c0.031,0.027,0.062,0.053,0.094,0.08c0.338,0.288,0.683,0.567,1.035,0.838c0.023,0.018,0.046,0.036,0.069,0.053
		c1.125,0.856,2.325,1.617,3.589,2.277c0.08,0.042,0.16,0.081,0.24,0.122c0.33,0.168,0.665,0.329,1.003,0.482
		c0.106,0.048,0.212,0.096,0.318,0.142c0.333,0.146,0.67,0.283,1.01,0.415c0.098,0.038,0.195,0.078,0.294,0.115
		c0.432,0.161,0.869,0.313,1.312,0.45c0.002,0.001,0.004,0.001,0.006,0.002c0.451,0.14,0.908,0.266,1.37,0.381
		c0.11,0.027,0.221,0.05,0.331,0.076c0.342,0.081,0.686,0.155,1.033,0.222c0.157,0.03,0.315,0.056,0.473,0.084
		c0.31,0.053,0.622,0.101,0.936,0.142c0.167,0.022,0.334,0.044,0.503,0.063c0.326,0.037,0.655,0.065,0.985,0.09
		c0.15,0.011,0.299,0.025,0.45,0.034c0.478,0.027,0.959,0.044,1.444,0.044h447.143c0.485,0,0.966-0.017,1.444-0.044
		C481.167,504.612,481.316,504.598,481.466,504.587z"/>
</g>
<path style="fill:#B2CAD8;" d="M458.987,460.667c-0.345,13.436-11.455,24.224-25.119,24.224H23.547l-11.497,9.452
	c0.003,0.004,0.006,0.009,0.009,0.014c0.853,1.166,1.806,2.257,2.846,3.259c0.001,0.001,0.001,0.002,0.002,0.002
	c0.09,0.087,0.187,0.168,0.278,0.253c0.338,0.316,0.684,0.624,1.04,0.921c0.181,0.151,0.364,0.298,0.549,0.445
	c0.244,0.193,0.497,0.375,0.748,0.559c0.355,0.26,0.715,0.513,1.084,0.754c0.221,0.145,0.447,0.283,0.673,0.42
	c0.378,0.23,0.76,0.453,1.15,0.664c0.351,0.189,0.705,0.374,1.067,0.547c0.156,0.075,0.309,0.153,0.466,0.224
	c0.01,0.005,0.021,0.009,0.031,0.014c0.546,0.247,1.102,0.476,1.668,0.684c0.153,0.057,0.31,0.105,0.465,0.16
	c0.467,0.162,0.941,0.311,1.42,0.445c0.17,0.047,0.338,0.098,0.509,0.142c0.577,0.149,1.161,0.279,1.753,0.388
	c0.1,0.018,0.2,0.036,0.3,0.053c0.04,0.007,0.08,0.012,0.12,0.018c0.549,0.091,1.104,0.163,1.664,0.219
	c0.177,0.017,0.355,0.035,0.533,0.048c0.658,0.051,1.321,0.087,1.992,0.087c0.003,0,0.006,0,0.009,0h447.143
	c0.485,0,0.966-0.017,1.444-0.044c0.151-0.009,0.3-0.023,0.45-0.034c0.33-0.024,0.658-0.053,0.985-0.09
	c0.168-0.019,0.336-0.041,0.503-0.063c0.314-0.042,0.625-0.09,0.935-0.142c0.158-0.027,0.316-0.054,0.473-0.084
	c0.347-0.066,0.69-0.141,1.032-0.221c0.111-0.026,0.222-0.049,0.332-0.076c0.462-0.115,0.919-0.241,1.37-0.381
	c0,0,0.002,0,0.003-0.001c0.003-0.001,0.005-0.002,0.008-0.003c0.442-0.137,0.877-0.289,1.308-0.449
	c0.045-0.017,0.089-0.035,0.134-0.052c0.054-0.021,0.108-0.042,0.162-0.063c0.34-0.132,0.676-0.268,1.008-0.414
	c0.106-0.046,0.211-0.094,0.316-0.142c0.338-0.154,0.673-0.314,1.003-0.482c0.08-0.041,0.162-0.081,0.242-0.122
	c0.62-0.324,1.224-0.674,1.812-1.045c0.022-0.014,0.043-0.027,0.065-0.041c0.587-0.374,1.158-0.77,1.71-1.19
	c0.024-0.018,0.048-0.038,0.073-0.057c0.351-0.269,0.694-0.547,1.03-0.833c0.033-0.028,0.066-0.057,0.099-0.085
	c0.349-0.301,0.691-0.61,1.022-0.929c0.002-0.002,0.004-0.003,0.005-0.005c0.518-0.499,1.013-1.019,1.486-1.56
	c0.008-0.009,0.015-0.017,0.023-0.026c0.472-0.542,0.922-1.103,1.347-1.684l0,0l0,0L458.987,460.667z"/>
<path d="M511.989,205.567c-0.005-0.251-0.022-0.5-0.053-0.747c-0.012-0.096-0.028-0.191-0.044-0.286
	c-0.037-0.222-0.084-0.441-0.141-0.658c-0.024-0.091-0.046-0.182-0.074-0.272c-0.074-0.243-0.161-0.48-0.26-0.713
	c-0.022-0.052-0.039-0.106-0.062-0.158c-0.129-0.287-0.276-0.565-0.441-0.833c-0.025-0.041-0.055-0.078-0.081-0.118
	c-0.141-0.219-0.293-0.431-0.458-0.635c-0.059-0.073-0.121-0.141-0.183-0.211c-0.145-0.166-0.296-0.325-0.457-0.479
	c-0.073-0.07-0.147-0.139-0.223-0.206c-0.06-0.052-0.113-0.11-0.174-0.161l-45.094-37.072V81.262
	c0-14.178-11.534-25.713-25.712-25.713H333.519l-59.385-48.82c-10.848-8.919-25.426-8.917-36.276,0l-59.383,48.82H73.468
	c-14.178,0-25.713,11.535-25.713,25.713v81.757L2.661,200.093c-0.056,0.046-0.105,0.099-0.16,0.147
	c-0.087,0.076-0.17,0.153-0.253,0.233c-0.148,0.142-0.289,0.291-0.424,0.444c-0.071,0.08-0.142,0.159-0.209,0.242
	c-0.15,0.187-0.288,0.381-0.419,0.581c-0.038,0.057-0.08,0.111-0.116,0.17c-0.161,0.262-0.304,0.533-0.431,0.813
	c-0.031,0.069-0.054,0.141-0.083,0.211c-0.089,0.215-0.171,0.432-0.239,0.655c-0.031,0.102-0.057,0.206-0.084,0.31
	c-0.052,0.202-0.096,0.406-0.131,0.613c-0.018,0.107-0.036,0.214-0.05,0.323c-0.028,0.231-0.043,0.464-0.049,0.698
	C0.012,205.598,0,205.661,0,205.726v201.461c0,4.028,3.265,7.293,7.293,7.293s7.293-3.265,7.293-7.293v-186.71l165.386,126.371
	L14.837,482.61c-0.151-0.918-0.25-1.853-0.25-2.812v-26.555c0-4.028-3.265-7.293-7.293-7.293S0,449.215,0,453.244v26.555
	c0,6.9,2.21,13.293,5.954,18.537c0.069,0.105,0.132,0.212,0.207,0.314c0.057,0.078,0.123,0.149,0.181,0.226
	c0.416,0.558,0.851,1.1,1.301,1.629c0.173,0.204,0.349,0.404,0.527,0.603c0.456,0.51,0.925,1.009,1.412,1.49
	c0.07,0.069,0.132,0.145,0.202,0.213c0.021,0.021,0.042,0.041,0.064,0.062c0.43,0.414,0.873,0.815,1.366,1.239
	c0.028,0.025,0.055,0.048,0.083,0.072c0.145,0.123,0.297,0.238,0.444,0.359c0.064,0.053,0.13,0.105,0.194,0.157
	c0.228,0.185,0.452,0.376,0.686,0.555c0.031,0.024,0.064,0.048,0.095,0.073c0.073,0.056,0.154,0.103,0.227,0.158
	c0.563,0.421,1.143,0.82,1.734,1.205c0.19,0.123,0.381,0.245,0.574,0.365c0.633,0.394,1.278,0.768,1.939,1.119
	c0.066,0.035,0.126,0.076,0.193,0.111l0.284,0.143c0.229,0.116,0.463,0.231,0.707,0.347c0.01,0.005,0.019,0.009,0.029,0.014
	c0.196,0.094,0.396,0.188,0.614,0.287l0.332,0.147c0.122,0.054,0.248,0.105,0.371,0.158c0.056,0.024,0.112,0.048,0.168,0.071
	c0.266,0.111,0.539,0.221,0.834,0.335l0.311,0.121c0.045,0.017,0.092,0.03,0.137,0.047c0.305,0.112,0.615,0.214,0.924,0.317
	c0.201,0.067,0.398,0.143,0.601,0.207c0.013,0.005,0.026,0.009,0.039,0.012c0.02,0.006,0.04,0.01,0.059,0.017
	c0.543,0.168,1.092,0.319,1.646,0.459c0.019,0.005,0.039,0.011,0.058,0.016c0.133,0.033,0.267,0.064,0.431,0.101
	c0.102,0.024,0.203,0.042,0.306,0.066c0.312,0.07,0.624,0.14,0.94,0.201c0.025,0.005,0.051,0.011,0.075,0.016
	c0.212,0.041,0.425,0.078,0.628,0.111c0.033,0.006,0.066,0.009,0.099,0.015c0.329,0.056,0.658,0.106,0.99,0.152
	c0.031,0.004,0.064,0.01,0.095,0.014c0.222,0.03,0.445,0.059,0.665,0.084c0.02,0.002,0.04,0.003,0.06,0.005
	c0.351,0.039,0.704,0.069,1.059,0.097c0.044,0.003,0.093,0.009,0.137,0.013l0.104,0.009c0.161,0.013,0.323,0.026,0.494,0.035
	c0.005,0,0.009,0,0.014,0c0.608,0.034,1.219,0.055,1.835,0.055h447.143c0.615,0,1.224-0.021,1.83-0.054c0.008,0,0.017,0,0.025-0.001
	c0.163-0.01,0.326-0.022,0.487-0.035l0.099-0.009c0.04-0.003,0.078-0.008,0.118-0.011c0.361-0.028,0.721-0.058,1.078-0.098
	c0.018-0.002,0.037-0.003,0.056-0.005c0.226-0.026,0.45-0.054,0.652-0.082c0.036-0.005,0.07-0.011,0.106-0.016
	c0.328-0.045,0.654-0.095,0.978-0.149c0.039-0.007,0.079-0.011,0.118-0.018c0.21-0.035,0.422-0.072,0.615-0.109
	c0.028-0.005,0.055-0.012,0.083-0.018c0.324-0.063,0.645-0.135,0.966-0.207c0.101-0.023,0.201-0.041,0.303-0.065
	c0.142-0.031,0.283-0.064,0.398-0.093c0.019-0.005,0.038-0.011,0.058-0.016c0.553-0.139,1.102-0.29,1.644-0.457
	c0.026-0.008,0.054-0.014,0.08-0.022c0.013-0.004,0.026-0.008,0.039-0.012c0.436-0.136,0.874-0.287,1.324-0.45
	c0.046-0.017,0.092-0.033,0.137-0.049c0.078-0.028,0.152-0.054,0.231-0.083l0.342-0.133c0.147-0.057,0.289-0.12,0.435-0.179
	c0.207-0.084,0.415-0.167,0.62-0.255c0.081-0.035,0.167-0.066,0.247-0.102l0.407-0.181c0.189-0.086,0.377-0.175,0.567-0.265
	c0.001,0,0.002-0.001,0.004-0.002c0.25-0.119,0.504-0.244,0.772-0.38l0.266-0.135c0.065-0.034,0.126-0.076,0.191-0.11
	c0.64-0.34,1.265-0.704,1.879-1.085c0.209-0.129,0.414-0.26,0.619-0.394c0.58-0.379,1.15-0.771,1.704-1.185
	c0.076-0.057,0.159-0.106,0.234-0.163v-0.001c0.037-0.028,0.074-0.056,0.095-0.072c0.235-0.18,0.46-0.372,0.69-0.559
	c0.063-0.051,0.127-0.102,0.19-0.154c0.15-0.123,0.305-0.24,0.452-0.366h-0.001l0.126-0.107c0.161-0.139,0.314-0.287,0.472-0.429
	c0.043-0.038,0.085-0.077,0.127-0.115c0.215-0.195,0.436-0.385,0.645-0.586c0.026-0.024,0.051-0.047,0.076-0.072
	c0.08-0.077,0.151-0.164,0.23-0.241c0.488-0.48,0.958-0.977,1.415-1.486c0.184-0.206,0.365-0.413,0.545-0.623
	c0.453-0.532,0.891-1.077,1.31-1.638c0.059-0.079,0.127-0.151,0.184-0.231c0.076-0.104,0.141-0.213,0.211-0.321
	c3.741-5.242,5.948-11.633,5.948-18.529V205.726C512,205.672,511.99,205.62,511.989,205.567z M47.755,227.464l-28.724-21.948
	l28.724-23.615V227.464z M464.245,181.902l28.724,23.614l-28.724,21.948V181.902z M247.123,17.996
	c5.474-4.499,12.275-4.5,17.749,0.001l45.677,37.551H201.446L247.123,17.996z M62.342,238.61v-72.146V81.262
	c0-6.136,4.991-11.127,11.126-11.127H181.09h149.815h107.627c6.135,0,11.126,4.991,11.126,11.127v85.203v72.145l-177.99,136.002
	c-7.96,5.605-19.014,6.308-27.748,2.104c-1.247-0.601-2.447-1.301-3.584-2.102l-44.196-33.77c-0.002-0.002-0.005-0.003-0.008-0.005
	L62.342,238.61z M488.272,495.126c-0.095,0.053-0.185,0.108-0.282,0.159c-0.456,0.241-0.923,0.464-1.402,0.666
	c-0.059,0.025-0.12,0.049-0.18,0.074c-0.99,0.406-2.025,0.725-3.096,0.951c-0.08,0.017-0.159,0.035-0.242,0.052
	c-0.503,0.099-1.015,0.175-1.533,0.231c-0.119,0.013-0.24,0.022-0.36,0.032c-0.53,0.047-1.064,0.08-1.606,0.08H32.429
	c-0.543,0-1.078-0.033-1.609-0.08c-0.117-0.01-0.233-0.019-0.351-0.031c-0.518-0.056-1.03-0.132-1.534-0.231
	c-0.085-0.017-0.175-0.038-0.261-0.056c-1.063-0.225-2.091-0.542-3.075-0.944c-0.065-0.026-0.13-0.053-0.196-0.081
	c-0.487-0.206-0.964-0.432-1.428-0.678c-0.058-0.031-0.113-0.065-0.171-0.097c-0.253-0.138-0.495-0.293-0.74-0.443l168.811-138.785
	l39.707,30.34c0.066,0.051,0.133,0.101,0.201,0.148c14.258,10.143,34.174,10.143,48.432,0c0.067-0.047,0.134-0.097,0.2-0.148
	l39.703-30.337l168.817,138.781C488.715,494.863,488.498,495.001,488.272,495.126z M497.414,479.798c0,0.959-0.1,1.894-0.25,2.812
	L332.026,346.85l165.388-126.373V479.798z"/>
<path d="M385.039,272.211c0-4.028-3.265-7.293-7.293-7.293h-243.49c-4.028,0-7.293,3.265-7.293,7.293s3.265,7.293,7.293,7.293
	h243.49C381.774,279.504,385.039,276.239,385.039,272.211z"/>
<path d="M368.437,232.828h28.462c4.028,0,7.293-3.265,7.293-7.293s-3.265-7.293-7.293-7.293h-28.462
	c-4.028,0-7.293,3.265-7.293,7.293S364.409,232.828,368.437,232.828z"/>
<path d="M328.938,225.534c0-4.028-3.265-7.293-7.293-7.293h-206.16c-4.028,0-7.293,3.265-7.293,7.293s3.265,7.293,7.293,7.293
	h206.16C325.673,232.828,328.938,229.563,328.938,225.534z"/>
<g>
	<path style="fill:#FFFFFF;" d="M184.396,104.13h-46.208c-3.375,0-5.141,3.315-5.141,6.589c0,3.883,2.162,6.701,5.141,6.701h16.014
		v65.45c0,3.027,2.938,5.142,7.145,5.142c3.551,0,7.146-1.766,7.146-5.142v-65.45h15.902c3.027,0,5.142-2.801,5.142-6.812
		C189.538,107.488,187.929,104.13,184.396,104.13z"/>
	<path style="fill:#FFFFFF;" d="M257.163,108.322c-0.984-2.952-4.42-4.86-8.752-4.86c-4.265,0-7.656,1.908-8.65,4.888
		l-22.147,72.122c-0.176,0.526-0.176,1.009-0.176,1.396c0,3.621,4.529,6.144,8.593,6.144c3.528,0,4.834-1.807,5.315-3.349
		l4.305-14.911h25.631l4.313,14.937c0.67,2.142,2.516,3.322,5.197,3.322c4.109,0,8.704-2.627,8.704-6.144
		c0-0.535-0.159-1.011-0.276-1.365L257.163,108.322z M238.936,157.798l9.476-32.5l9.476,32.5H238.936z"/>
	<path style="fill:#FFFFFF;" d="M371.064,178.345l-18.9-32.337l18.357-32.123c0.694-1.252,1.047-2.429,1.047-3.5
		c0-3.883-4.529-6.589-8.593-6.589c-2.368,0-4.349,1.44-5.546,3.988l-14.489,26.493l-14.272-26.478
		c-1.751-3.309-3.987-4.003-5.554-4.003c-4.117,0-8.705,2.706-8.705,6.589c0,1.071,0.352,2.248,1.055,3.513l18.349,32.11
		l-18.939,32.409c-0.538,1.077-0.8,2.023-0.8,2.895c0,3.897,4.823,7.035,8.816,7.035c1.868,0,3.64-1.199,4.876-3.318l15.173-27.644
		l15.359,27.601c0.812,1.625,2.497,3.36,4.787,3.36c4.128,0,8.927-3.073,8.927-7.035C372.014,180.42,371.65,179.51,371.064,178.345z
		"/>
</g>
<g>
</g>
<g>
</g>
<g>
</g>
<g>
</g>
<g>
</g>
<g>
</g>
<g>
</g>
<g>
</g>
<g>
</g>
<g>
</g>
<g>
</g>
<g>
</g>
<g>
</g>
<g>
</g>
<g>
</g>
</svg>
